# xmcd
# 
# Track frame offsets:
#     150
#     21675
#     35542
#     51662
#     66217
#     84165
#     104790
#     119385
#     135060
#     149757
#     165495
#     178242
#     192047
#     208340
#     219215
#     232705
#     250557
#     261432
#     275697
#     289710
# 
# Disc length: 4094
# 
# Revision: 2
# Processed by: cddbd v1.5.2PL0 Copyright (c) Steve Scherf et al.
# Submitted via: fre:ac v1.0.31
# 
DISCID=330ffc14
DTITLE=Various Artist - The Best of 90s Country
DYEAR=0
DGENRE=Country
TTITLE0=Willie Nelson - Graceland
TTITLE1=Tammy Wynette - Girl Thing
TTITLE2=Dolly Parton - Romeo
TTITLE3=Highwayman - Silver Stallion
TTITLE4=Collin Rave - Little Rock
TTITLE5=Patty Loveless - Lonely Too Long
TTITLE6=Montgomery Gentry - Hillbilly Shoes
TTITLE7=Dong Stone - A Jukebox with a Country Song
TTITLE8=Deryl Dodd - That's How I Got To Memphis
TTITLE9=Rosanne Cash - What We Really Want
TTITLE10=Joe Diffie - Third Rock From The Sun
TTITLE11=Ricochet - Daddy's Money
TTITLE12=The Kenleys - Please
TTITLE13=Dolly Parton - Silver Threads and Golden Needles
TTITLE14=Waylon Jennings - Wrong
TTITLE15=Rodney Crowell - What Kind of Love
TTITLE16=Joy White - Little Tears
TTITLE17=Wade Hayes - On A Good Night
TTITLE18=Rick Trevino - Running Out of Reasons To Run
TTITLE19=Ricky van Shelton - Keep it Between the Lines
EXTD=
EXTT0=
EXTT1=
EXTT2=
EXTT3=
EXTT4=
EXTT5=
EXTT6=
EXTT7=
EXTT8=
EXTT9=
EXTT10=
EXTT11=
EXTT12=
EXTT13=
EXTT14=
EXTT15=
EXTT16=
EXTT17=
EXTT18=
EXTT19=
PLAYORDER=
